<svg width="803" height="169" viewBox="0 0 803 169" fill="none" xmlns="http://www.w3.org/2000/svg">
<path d="M0 91.392V1.792H42.368C52.2667 1.792 60.9707 3.62667 68.48 7.29601C75.9893 10.9653 81.8347 16.128 86.016 22.784C90.2827 29.44 92.416 37.376 92.416 46.592C92.416 55.7227 90.2827 63.6587 86.016 70.4C81.8347 77.056 75.9893 82.2187 68.48 85.888C60.9707 89.5573 52.2667 91.392 42.368 91.392H0ZM25.344 71.168H41.344C46.464 71.168 50.9013 70.2293 54.656 68.352C58.496 66.3893 61.4827 63.5733 63.616 59.904C65.7493 56.1493 66.816 51.712 66.816 46.592C66.816 41.3867 65.7493 36.9493 63.616 33.28C61.4827 29.6107 58.496 26.8373 54.656 24.96C50.9013 22.9973 46.464 22.016 41.344 22.016H25.344V71.168Z" fill="url(#paint0_linear_70_719)"/>
<path d="M105.75 91.392V1.792H146.71C154.902 1.792 161.942 3.11467 167.83 5.76C173.803 8.40534 178.411 12.2453 181.654 17.28C184.897 22.2293 186.518 28.1173 186.518 34.944C186.518 41.6853 184.897 47.5307 181.654 52.48C178.411 57.344 173.803 61.0987 167.83 63.744C161.942 66.304 154.902 67.584 146.71 67.584H119.83L131.094 56.96V91.392H105.75ZM161.174 91.392L138.902 58.752H165.91L188.31 91.392H161.174ZM131.094 59.648L119.83 48H145.174C150.465 48 154.39 46.848 156.95 44.544C159.595 42.24 160.918 39.04 160.918 34.944C160.918 30.7627 159.595 27.52 156.95 25.216C154.39 22.912 150.465 21.76 145.174 21.76H119.83L131.094 10.112V59.648Z" fill="url(#paint1_linear_70_719)"/>
<path d="M245.684 93.184C238.516 93.184 231.903 92.032 225.844 89.728C219.785 87.424 214.495 84.1813 209.972 80C205.535 75.7333 202.079 70.784 199.604 65.152C197.129 59.52 195.892 53.3333 195.892 46.592C195.892 39.8507 197.129 33.664 199.604 28.032C202.079 22.4 205.535 17.4933 209.972 13.312C214.495 9.04534 219.785 5.76 225.844 3.456C231.903 1.152 238.516 0 245.684 0C252.937 0 259.551 1.152 265.524 3.456C271.583 5.76 276.831 9.04534 281.268 13.312C285.705 17.4933 289.161 22.4 291.636 28.032C294.196 33.664 295.476 39.8507 295.476 46.592C295.476 53.3333 294.196 59.5627 291.636 65.28C289.161 70.912 285.705 75.8187 281.268 80C276.831 84.1813 271.583 87.424 265.524 89.728C259.551 92.032 252.937 93.184 245.684 93.184ZM245.684 72.192C249.097 72.192 252.255 71.5947 255.156 70.4C258.143 69.2053 260.703 67.4987 262.836 65.28C265.055 62.976 266.761 60.2453 267.956 57.088C269.236 53.9307 269.876 50.432 269.876 46.592C269.876 42.6667 269.236 39.168 267.956 36.096C266.761 32.9387 265.055 30.2507 262.836 28.032C260.703 25.728 258.143 23.9787 255.156 22.784C252.255 21.5893 249.097 20.992 245.684 20.992C242.271 20.992 239.071 21.5893 236.084 22.784C233.183 23.9787 230.623 25.728 228.404 28.032C226.271 30.2507 224.564 32.9387 223.284 36.096C222.089 39.168 221.492 42.6667 221.492 46.592C221.492 50.432 222.089 53.9307 223.284 57.088C224.564 60.2453 226.271 62.976 228.404 65.28C230.623 67.4987 233.183 69.2053 236.084 70.4C239.071 71.5947 242.271 72.192 245.684 72.192Z" fill="url(#paint2_linear_70_719)"/>
<path d="M308.75 91.392V1.792H349.71C357.902 1.792 364.942 3.11467 370.83 5.76C376.803 8.40534 381.411 12.2453 384.654 17.28C387.897 22.2293 389.518 28.1173 389.518 34.944C389.518 41.6853 387.897 47.5307 384.654 52.48C381.411 57.4293 376.803 61.2693 370.83 64C364.942 66.6453 357.902 67.968 349.71 67.968H322.83L334.094 56.96V91.392H308.75ZM334.094 59.648L322.83 48H348.174C353.465 48 357.39 46.848 359.95 44.544C362.595 42.24 363.918 39.04 363.918 34.944C363.918 30.7627 362.595 27.52 359.95 25.216C357.39 22.912 353.465 21.76 348.174 21.76H322.83L334.094 10.112V59.648Z" fill="url(#paint3_linear_70_719)"/>
<path d="M397.145 91.392V75.52L449.881 12.928L452.953 21.888H398.297V1.792H475.481V17.664L422.745 80.256L419.673 71.296H477.401V91.392H397.145Z" fill="url(#paint4_linear_70_719)"/>
<path d="M532.934 93.184C525.766 93.184 519.153 92.032 513.094 89.728C507.035 87.424 501.745 84.1813 497.222 80C492.785 75.7333 489.329 70.784 486.854 65.152C484.379 59.52 483.142 53.3333 483.142 46.592C483.142 39.8507 484.379 33.664 486.854 28.032C489.329 22.4 492.785 17.4933 497.222 13.312C501.745 9.04534 507.035 5.76 513.094 3.456C519.153 1.152 525.766 0 532.934 0C540.187 0 546.801 1.152 552.774 3.456C558.833 5.76 564.081 9.04534 568.518 13.312C572.955 17.4933 576.411 22.4 578.886 28.032C581.446 33.664 582.726 39.8507 582.726 46.592C582.726 53.3333 581.446 59.5627 578.886 65.28C576.411 70.912 572.955 75.8187 568.518 80C564.081 84.1813 558.833 87.424 552.774 89.728C546.801 92.032 540.187 93.184 532.934 93.184ZM532.934 72.192C536.347 72.192 539.505 71.5947 542.406 70.4C545.393 69.2053 547.953 67.4987 550.086 65.28C552.305 62.976 554.011 60.2453 555.206 57.088C556.486 53.9307 557.126 50.432 557.126 46.592C557.126 42.6667 556.486 39.168 555.206 36.096C554.011 32.9387 552.305 30.2507 550.086 28.032C547.953 25.728 545.393 23.9787 542.406 22.784C539.505 21.5893 536.347 20.992 532.934 20.992C529.521 20.992 526.321 21.5893 523.334 22.784C520.433 23.9787 517.873 25.728 515.654 28.032C513.521 30.2507 511.814 32.9387 510.534 36.096C509.339 39.168 508.742 42.6667 508.742 46.592C508.742 50.432 509.339 53.9307 510.534 57.088C511.814 60.2453 513.521 62.976 515.654 65.28C517.873 67.4987 520.433 69.2053 523.334 70.4C526.321 71.5947 529.521 72.192 532.934 72.192Z" fill="url(#paint5_linear_70_719)"/>
<path d="M596 91.392V1.792H616.864L666.272 61.44H656.416V1.792H681.248V91.392H660.384L610.976 31.744H620.832V91.392H596Z" fill="url(#paint6_linear_70_719)"/>
<path d="M694.608 93L733.776 3.39999H763.472L802.64 93H771.408L742.48 17.736H754.256L725.328 93H694.608ZM717.904 77.384L725.584 55.624H766.8L774.48 77.384H717.904Z" fill="url(#paint7_linear_70_719)"/>
<path d="M6.05804 156V120.3H36.097V156H32.374V122.544L33.343 123.564H8.81204L9.78104 122.544V156H6.05804ZM58.292 156.255C55.708 156.255 53.379 155.677 51.305 154.521C49.265 153.331 47.65 151.716 46.46 149.676C45.27 147.602 44.675 145.239 44.675 142.587C44.675 139.901 45.27 137.538 46.46 135.498C47.65 133.458 49.265 131.86 51.305 130.704C53.345 129.548 55.674 128.97 58.292 128.97C60.944 128.97 63.29 129.548 65.33 130.704C67.404 131.86 69.019 133.458 70.175 135.498C71.365 137.538 71.96 139.901 71.96 142.587C71.96 145.239 71.365 147.602 70.175 149.676C69.019 151.716 67.404 153.331 65.33 154.521C63.256 155.677 60.91 156.255 58.292 156.255ZM58.292 153.042C60.23 153.042 61.947 152.617 63.443 151.767C64.939 150.883 66.112 149.659 66.962 148.095C67.846 146.497 68.288 144.661 68.288 142.587C68.288 140.479 67.846 138.643 66.962 137.079C66.112 135.515 64.939 134.308 63.443 133.458C61.947 132.574 60.247 132.132 58.343 132.132C56.439 132.132 54.739 132.574 53.243 133.458C51.747 134.308 50.557 135.515 49.673 137.079C48.789 138.643 48.347 140.479 48.347 142.587C48.347 144.661 48.789 146.497 49.673 148.095C50.557 149.659 51.747 150.883 53.243 151.767C54.739 152.617 56.422 153.042 58.292 153.042ZM79.6989 156V129.225H103.771V156H100.15V131.418L101.068 132.387H82.4019L83.3199 131.418V156H79.6989ZM125.08 156.255C122.496 156.255 120.167 155.677 118.093 154.521C116.053 153.331 114.438 151.716 113.248 149.676C112.058 147.602 111.463 145.239 111.463 142.587C111.463 139.901 112.058 137.538 113.248 135.498C114.438 133.458 116.053 131.86 118.093 130.704C120.133 129.548 122.462 128.97 125.08 128.97C127.732 128.97 130.078 129.548 132.118 130.704C134.192 131.86 135.807 133.458 136.963 135.498C138.153 137.538 138.748 139.901 138.748 142.587C138.748 145.239 138.153 147.602 136.963 149.676C135.807 151.716 134.192 153.331 132.118 154.521C130.044 155.677 127.698 156.255 125.08 156.255ZM125.08 153.042C127.018 153.042 128.735 152.617 130.231 151.767C131.727 150.883 132.9 149.659 133.75 148.095C134.634 146.497 135.076 144.661 135.076 142.587C135.076 140.479 134.634 138.643 133.75 137.079C132.9 135.515 131.727 134.308 130.231 133.458C128.735 132.574 127.035 132.132 125.131 132.132C123.227 132.132 121.527 132.574 120.031 133.458C118.535 134.308 117.345 135.515 116.461 137.079C115.577 138.643 115.135 140.479 115.135 142.587C115.135 144.661 115.577 146.497 116.461 148.095C117.345 149.659 118.535 150.883 120.031 151.767C121.527 152.617 123.21 153.042 125.08 153.042ZM141.442 155.949L141.697 152.838C141.935 152.872 142.156 152.923 142.36 152.991C142.598 153.025 142.802 153.042 142.972 153.042C144.06 153.042 144.927 152.634 145.573 151.818C146.253 151.002 146.763 149.914 147.103 148.554C147.443 147.194 147.681 145.664 147.817 143.964C147.953 142.23 148.072 140.496 148.174 138.762L148.633 129.225H168.268V156H164.647V131.316L165.565 132.387H150.979L151.846 131.265L151.438 139.017C151.336 141.329 151.149 143.539 150.877 145.647C150.639 147.755 150.248 149.608 149.704 151.206C149.194 152.804 148.48 154.062 147.562 154.98C146.644 155.864 145.471 156.306 144.043 156.306C143.635 156.306 143.21 156.272 142.768 156.204C142.36 156.136 141.918 156.051 141.442 155.949ZM178.561 156V129.225H182.182V141.057H199.063V129.225H202.684V156H199.063V144.168H182.182V156H178.561ZM224.451 156.255C221.663 156.255 219.215 155.677 217.107 154.521C214.999 153.331 213.35 151.716 212.16 149.676C210.97 147.602 210.375 145.239 210.375 142.587C210.375 139.935 210.936 137.589 212.058 135.549C213.214 133.509 214.778 131.911 216.75 130.755C218.756 129.565 221 128.97 223.482 128.97C225.998 128.97 228.225 129.548 230.163 130.704C232.135 131.826 233.682 133.424 234.804 135.498C235.926 137.538 236.487 139.901 236.487 142.587C236.487 142.757 236.47 142.944 236.436 143.148C236.436 143.318 236.436 143.505 236.436 143.709H213.129V141.006H234.498L233.07 142.077C233.07 140.139 232.645 138.422 231.795 136.926C230.979 135.396 229.857 134.206 228.429 133.356C227.001 132.506 225.352 132.081 223.482 132.081C221.646 132.081 219.997 132.506 218.535 133.356C217.073 134.206 215.934 135.396 215.118 136.926C214.302 138.456 213.894 140.207 213.894 142.179V142.74C213.894 144.78 214.336 146.582 215.22 148.146C216.138 149.676 217.396 150.883 218.994 151.767C220.626 152.617 222.479 153.042 224.553 153.042C226.185 153.042 227.698 152.753 229.092 152.175C230.52 151.597 231.744 150.713 232.764 149.523L234.804 151.869C233.614 153.297 232.118 154.385 230.316 155.133C228.548 155.881 226.593 156.255 224.451 156.255ZM244.503 156V129.225H248.124V141.057H265.005V129.225H268.626V156H265.005V144.168H248.124V156H244.503ZM278.918 156V129.225H282.539V150.492L300.44 129.225H303.653V156H300.032V134.682L282.182 156H278.918ZM325.505 156.255C322.717 156.255 320.269 155.677 318.161 154.521C316.053 153.331 314.404 151.716 313.214 149.676C312.024 147.602 311.429 145.239 311.429 142.587C311.429 139.935 311.99 137.589 313.112 135.549C314.268 133.509 315.832 131.911 317.804 130.755C319.81 129.565 322.054 128.97 324.536 128.97C327.052 128.97 329.279 129.548 331.217 130.704C333.189 131.826 334.736 133.424 335.858 135.498C336.98 137.538 337.541 139.901 337.541 142.587C337.541 142.757 337.524 142.944 337.49 143.148C337.49 143.318 337.49 143.505 337.49 143.709H314.183V141.006H335.552L334.124 142.077C334.124 140.139 333.699 138.422 332.849 136.926C332.033 135.396 330.911 134.206 329.483 133.356C328.055 132.506 326.406 132.081 324.536 132.081C322.7 132.081 321.051 132.506 319.589 133.356C318.127 134.206 316.988 135.396 316.172 136.926C315.356 138.456 314.948 140.207 314.948 142.179V142.74C314.948 144.78 315.39 146.582 316.274 148.146C317.192 149.676 318.45 150.883 320.048 151.767C321.68 152.617 323.533 153.042 325.607 153.042C327.239 153.042 328.752 152.753 330.146 152.175C331.574 151.597 332.798 150.713 333.818 149.523L335.858 151.869C334.668 153.297 333.172 154.385 331.37 155.133C329.602 155.881 327.647 156.255 325.505 156.255ZM358.904 156V129.225H362.525V150.492L380.426 129.225H383.639V156H380.018V134.682L362.168 156H358.904ZM394.016 156V129.225H412.988V132.387H396.719L397.637 131.469V156H394.016ZM432.042 156.255C429.73 156.255 427.639 155.728 425.769 154.674C423.899 153.586 422.403 152.039 421.281 150.033C420.193 147.993 419.649 145.511 419.649 142.587C419.649 139.663 420.193 137.198 421.281 135.192C422.369 133.152 423.848 131.605 425.718 130.551C427.588 129.497 429.696 128.97 432.042 128.97C434.592 128.97 436.87 129.548 438.876 130.704C440.916 131.826 442.514 133.424 443.67 135.498C444.826 137.538 445.404 139.901 445.404 142.587C445.404 145.307 444.826 147.687 443.67 149.727C442.514 151.767 440.916 153.365 438.876 154.521C436.87 155.677 434.592 156.255 432.042 156.255ZM418.221 165.894V129.225H421.689V137.283L421.332 142.638L421.842 148.044V165.894H418.221ZM431.787 153.042C433.691 153.042 435.391 152.617 436.887 151.767C438.383 150.883 439.573 149.659 440.457 148.095C441.341 146.497 441.783 144.661 441.783 142.587C441.783 140.513 441.341 138.694 440.457 137.13C439.573 135.566 438.383 134.342 436.887 133.458C435.391 132.574 433.691 132.132 431.787 132.132C429.883 132.132 428.166 132.574 426.636 133.458C425.14 134.342 423.95 135.566 423.066 137.13C422.216 138.694 421.791 140.513 421.791 142.587C421.791 144.661 422.216 146.497 423.066 148.095C423.95 149.659 425.14 150.883 426.636 151.767C428.166 152.617 429.883 153.042 431.787 153.042ZM466.532 156V129.225H470.153V150.492L488.054 129.225H491.267V156H487.646V134.682L469.796 156H466.532ZM520.092 156V131.418L521.01 132.387H509.943V129.225H533.862V132.387H522.795L523.713 131.418V156H520.092ZM548.868 156.255C546.284 156.255 543.955 155.677 541.881 154.521C539.841 153.331 538.226 151.716 537.036 149.676C535.846 147.602 535.251 145.239 535.251 142.587C535.251 139.901 535.846 137.538 537.036 135.498C538.226 133.458 539.841 131.86 541.881 130.704C543.921 129.548 546.25 128.97 548.868 128.97C551.52 128.97 553.866 129.548 555.906 130.704C557.98 131.86 559.595 133.458 560.751 135.498C561.941 137.538 562.536 139.901 562.536 142.587C562.536 145.239 561.941 147.602 560.751 149.676C559.595 151.716 557.98 153.331 555.906 154.521C553.832 155.677 551.486 156.255 548.868 156.255ZM548.868 153.042C550.806 153.042 552.523 152.617 554.019 151.767C555.515 150.883 556.688 149.659 557.538 148.095C558.422 146.497 558.864 144.661 558.864 142.587C558.864 140.479 558.422 138.643 557.538 137.079C556.688 135.515 555.515 134.308 554.019 133.458C552.523 132.574 550.823 132.132 548.919 132.132C547.015 132.132 545.315 132.574 543.819 133.458C542.323 134.308 541.133 135.515 540.249 137.079C539.365 138.643 538.923 140.479 538.923 142.587C538.923 144.661 539.365 146.497 540.249 148.095C541.133 149.659 542.323 150.883 543.819 151.767C545.315 152.617 546.998 153.042 548.868 153.042ZM570.275 156V129.225H582.107C585.133 129.225 587.513 129.803 589.247 130.959C591.015 132.115 591.899 133.815 591.899 136.059C591.899 138.235 591.066 139.918 589.4 141.108C587.734 142.264 585.541 142.842 582.821 142.842L583.535 141.771C586.731 141.771 589.077 142.366 590.573 143.556C592.069 144.746 592.817 146.463 592.817 148.707C592.817 151.019 591.967 152.821 590.267 154.113C588.601 155.371 586 156 582.464 156H570.275ZM573.794 153.144H582.311C584.589 153.144 586.306 152.787 587.462 152.073C588.652 151.325 589.247 150.135 589.247 148.503C589.247 146.871 588.72 145.681 587.666 144.933C586.612 144.185 584.946 143.811 582.668 143.811H573.794V153.144ZM573.794 141.108H581.852C583.926 141.108 585.507 140.717 586.595 139.935C587.717 139.153 588.278 138.014 588.278 136.518C588.278 135.022 587.717 133.9 586.595 133.152C585.507 132.404 583.926 132.03 581.852 132.03H573.794V141.108ZM617.929 156V150.084L617.776 149.115V139.221C617.776 136.943 617.13 135.192 615.838 133.968C614.58 132.744 612.693 132.132 610.177 132.132C608.443 132.132 606.794 132.421 605.23 132.999C603.666 133.577 602.34 134.342 601.252 135.294L599.62 132.591C600.98 131.435 602.612 130.551 604.516 129.939C606.42 129.293 608.426 128.97 610.534 128.97C614.002 128.97 616.671 129.837 618.541 131.571C620.445 133.271 621.397 135.872 621.397 139.374V156H617.929ZM608.698 156.255C606.692 156.255 604.941 155.932 603.445 155.286C601.983 154.606 600.861 153.688 600.079 152.532C599.297 151.342 598.906 149.982 598.906 148.452C598.906 147.058 599.229 145.8 599.875 144.678C600.555 143.522 601.643 142.604 603.139 141.924C604.669 141.21 606.709 140.853 609.259 140.853H618.49V143.556H609.361C606.777 143.556 604.975 144.015 603.955 144.933C602.969 145.851 602.476 146.99 602.476 148.35C602.476 149.88 603.071 151.104 604.261 152.022C605.451 152.94 607.117 153.399 609.259 153.399C611.299 153.399 613.05 152.94 614.512 152.022C616.008 151.07 617.096 149.71 617.776 147.942L618.592 150.441C617.912 152.209 616.722 153.62 615.022 154.674C613.356 155.728 611.248 156.255 608.698 156.255ZM644.858 156.255C642.546 156.255 640.455 155.728 638.585 154.674C636.715 153.586 635.219 152.039 634.097 150.033C633.009 147.993 632.465 145.511 632.465 142.587C632.465 139.663 633.009 137.198 634.097 135.192C635.185 133.152 636.664 131.605 638.534 130.551C640.404 129.497 642.512 128.97 644.858 128.97C647.408 128.97 649.686 129.548 651.692 130.704C653.732 131.826 655.33 133.424 656.486 135.498C657.642 137.538 658.22 139.901 658.22 142.587C658.22 145.307 657.642 147.687 656.486 149.727C655.33 151.767 653.732 153.365 651.692 154.521C649.686 155.677 647.408 156.255 644.858 156.255ZM631.037 165.894V129.225H634.505V137.283L634.148 142.638L634.658 148.044V165.894H631.037ZM644.603 153.042C646.507 153.042 648.207 152.617 649.703 151.767C651.199 150.883 652.389 149.659 653.273 148.095C654.157 146.497 654.599 144.661 654.599 142.587C654.599 140.513 654.157 138.694 653.273 137.13C652.389 135.566 651.199 134.342 649.703 133.458C648.207 132.574 646.507 132.132 644.603 132.132C642.699 132.132 640.982 132.574 639.452 133.458C637.956 134.342 636.766 135.566 635.882 137.13C635.032 138.694 634.607 140.513 634.607 142.587C634.607 144.661 635.032 146.497 635.882 148.095C636.766 149.659 637.956 150.883 639.452 151.767C640.982 152.617 642.699 153.042 644.603 153.042ZM692.112 156V129.225H695.733V156H692.112ZM677.271 138.66C680.637 138.694 683.204 139.442 684.972 140.904C686.74 142.366 687.624 144.474 687.624 147.228C687.624 150.084 686.672 152.277 684.768 153.807C682.864 155.337 680.144 156.085 676.608 156.051L666 156V129.225H669.621V138.558L677.271 138.66ZM676.353 153.297C678.869 153.331 680.756 152.838 682.014 151.818C683.306 150.764 683.952 149.234 683.952 147.228C683.952 145.222 683.323 143.76 682.065 142.842C680.807 141.89 678.903 141.397 676.353 141.363L669.621 141.261V153.195L676.353 153.297Z" fill="white"/>
<defs>
<linearGradient id="paint0_linear_70_719" x1="152.309" y1="16.7973" x2="161.722" y2="110.093" gradientUnits="userSpaceOnUse">
<stop stop-color="#FFB52B"/>
<stop offset="1" stop-color="#FF8C00"/>
</linearGradient>
<linearGradient id="paint1_linear_70_719" x1="152.309" y1="16.7973" x2="161.722" y2="110.093" gradientUnits="userSpaceOnUse">
<stop stop-color="#FFB52B"/>
<stop offset="1" stop-color="#FF8C00"/>
</linearGradient>
<linearGradient id="paint2_linear_70_719" x1="152.309" y1="16.7973" x2="161.722" y2="110.093" gradientUnits="userSpaceOnUse">
<stop stop-color="#FFB52B"/>
<stop offset="1" stop-color="#FF8C00"/>
</linearGradient>
<linearGradient id="paint3_linear_70_719" x1="152.309" y1="16.7973" x2="161.722" y2="110.093" gradientUnits="userSpaceOnUse">
<stop stop-color="#FFB52B"/>
<stop offset="1" stop-color="#FF8C00"/>
</linearGradient>
<linearGradient id="paint4_linear_70_719" x1="152.309" y1="16.7973" x2="161.722" y2="110.093" gradientUnits="userSpaceOnUse">
<stop stop-color="#FFB52B"/>
<stop offset="1" stop-color="#FF8C00"/>
</linearGradient>
<linearGradient id="paint5_linear_70_719" x1="152.309" y1="16.7973" x2="161.722" y2="110.093" gradientUnits="userSpaceOnUse">
<stop stop-color="#FFB52B"/>
<stop offset="1" stop-color="#FF8C00"/>
</linearGradient>
<linearGradient id="paint6_linear_70_719" x1="152.309" y1="16.7973" x2="161.722" y2="110.093" gradientUnits="userSpaceOnUse">
<stop stop-color="#FFB52B"/>
<stop offset="1" stop-color="#FF8C00"/>
</linearGradient>
<linearGradient id="paint7_linear_70_719" x1="152.309" y1="16.7973" x2="161.722" y2="110.093" gradientUnits="userSpaceOnUse">
<stop stop-color="#FFB52B"/>
<stop offset="1" stop-color="#FF8C00"/>
</linearGradient>
</defs>
</svg>
