<svg width="2372" height="2372" viewBox="0 0 2372 2372" fill="none" xmlns="http://www.w3.org/2000/svg">
<path d="M1185.76 0.000108802C530.884 0.000108802 0 530.88 0 1185.76C0 1840.64 530.884 2371.52 1185.76 2371.52C1840.64 2371.52 2371.52 1840.64 2371.52 1185.76C2371.52 530.88 1840.64 0.000108802 1185.76 0.000108802Z" fill="#09FFF7"/>
<path d="M1185.76 0.000108802C530.884 0.000108802 0 530.88 0 1185.76C0 1840.64 530.884 2371.52 1185.76 2371.52C1840.64 2371.52 2371.52 1840.64 2371.52 1185.76C2371.52 530.88 1840.64 0.000108802 1185.76 0.000108802Z" fill="#20CFC9"/>
<path d="M2150.27 1160.85C2148.59 1094.65 2140.24 1030.11 2125.87 967.867C2124.08 960.093 2122.19 952.347 2120.2 944.64C2111.92 912.427 2101.96 880.88 2090.53 850.067C2077.33 814.52 2062.15 779.947 2045.03 746.52C2041.48 739.587 2037.84 732.707 2034.13 725.867C1994.28 652.52 1945.16 584.96 1888.41 524.653C1838.81 471.973 1783.39 424.84 1723.12 384.36C1698.09 367.547 1672.25 351.853 1645.65 337.387C1638.81 333.68 1631.93 330.04 1625 326.493C1493.25 259.013 1343.95 220.947 1185.76 220.947C1185.71 220.947 1185.64 220.947 1185.59 220.947C1180.4 220.947 1175.24 221.053 1170.08 221.147C1163.53 221.253 1157 221.413 1150.48 221.653C1149.44 221.693 1148.4 221.733 1147.36 221.773C1141.63 222 1135.89 222.253 1130.17 222.573C1127.45 222.733 1124.75 222.92 1122.04 223.093C1117.72 223.373 1113.4 223.64 1109.11 223.973C1101.76 224.547 1094.42 225.187 1087.12 225.92C1054.68 229.213 1022.72 234.12 991.32 240.547C959.916 246.973 929.068 254.92 898.857 264.32C883.751 269.013 868.805 274.08 854.028 279.493C817.085 293.013 781.2 308.733 746.529 326.493C739.596 330.04 732.711 333.68 725.875 337.387C712.204 344.813 698.733 352.56 685.472 360.627C668.295 371.053 651.509 382.067 635.056 393.533C626.105 399.76 617.225 406.093 608.5 412.613C497.057 495.96 404.235 602.827 337.397 725.867C333.684 732.707 330.051 739.587 326.5 746.52C314.393 770.16 303.296 794.387 293.135 819.107C289.523 827.893 286.036 836.733 282.679 845.64C270.537 877.867 260.009 910.88 251.324 944.64C249.341 952.347 247.451 960.093 245.655 967.867C231.287 1030.11 222.941 1094.65 221.264 1160.85C221.055 1169.13 220.949 1177.43 220.949 1185.76C220.949 1192.76 221.047 1199.73 221.215 1206.71C221.372 1213.32 221.592 1219.93 221.868 1226.52C221.888 1226.04 221.925 1225.55 221.945 1225.07C225.576 1315.51 241.512 1402.77 268.375 1485.13C276.26 1509.32 285.053 1533.08 294.756 1556.39C360.807 1714.99 467.96 1852.16 602.928 1954.63C619.601 1967.28 636.703 1979.4 654.201 1990.99C696.944 2019.25 742.033 2044.27 789.176 2065.55C808.733 2074.37 828.66 2082.53 848.888 2090.08C947.028 2126.65 1052.71 2147.73 1162.99 2150.28C1170.56 2150.45 1178.15 2150.57 1185.76 2150.57C1204.35 2150.57 1222.8 2149.99 1241.13 2148.96C1734.77 2121.01 2129.09 1722.01 2149.65 1226.44C2149.65 1226.47 2149.65 1226.49 2149.65 1226.52C2149.93 1219.93 2150.15 1213.32 2150.31 1206.71C2150.48 1199.73 2150.57 1192.76 2150.57 1185.76C2150.57 1177.43 2150.47 1169.13 2150.27 1160.85Z" fill="url(#paint0_linear_4_80)"/>
<path d="M1723.12 384.36C1698.09 367.547 1672.25 351.853 1645.65 337.387C1638.81 333.68 1631.93 330.04 1625 326.493C1493.25 259.013 1343.95 220.947 1185.76 220.947C1185.71 220.947 1185.64 220.947 1185.59 220.947C1180.4 220.947 1175.24 221.053 1170.08 221.147C1163.53 221.253 1157 221.413 1150.48 221.653C1149.44 221.693 1148.4 221.733 1147.36 221.773C1141.63 222 1135.89 222.253 1130.17 222.573C1127.45 222.733 1124.75 222.92 1122.04 223.093C1117.72 223.373 1113.4 223.64 1109.11 223.973C1101.76 224.547 1094.42 225.187 1087.12 225.92C1054.68 229.213 1022.72 234.12 991.32 240.547C959.916 246.973 929.068 254.92 898.857 264.32C883.751 269.013 868.805 274.08 854.028 279.493C817.085 293.013 781.2 308.733 746.529 326.493C739.596 330.04 732.711 333.68 725.875 337.387C712.204 344.813 698.733 352.56 685.472 360.627C668.295 371.053 651.509 382.067 635.056 393.533C626.105 399.76 617.225 406.093 608.5 412.613C497.057 495.96 404.235 602.827 337.397 725.867C333.684 732.707 330.051 739.587 326.5 746.52C314.393 770.16 303.296 794.387 293.135 819.107C289.523 827.893 286.036 836.733 282.679 845.64C270.537 877.867 260.009 910.88 251.324 944.64C249.341 952.347 247.451 960.093 245.655 967.867C231.287 1030.11 222.941 1094.65 221.264 1160.85C221.055 1169.13 220.949 1177.43 220.949 1185.76C220.949 1192.76 221.047 1199.73 221.215 1206.71C221.372 1213.32 221.592 1219.93 221.868 1226.52C221.888 1226.04 221.925 1225.55 221.945 1225.07C244.059 711.813 667.067 302.467 1185.76 302.467C1186.92 302.467 1188.08 302.507 1189.24 302.52C1392.4 303.227 1580.75 366.747 1735.91 474.667C1795.59 516.16 1850.35 564.227 1899.16 617.813C1985.76 712.907 2053.63 825.373 2096.89 949.373C2127.35 1036.69 2145.63 1129.72 2149.65 1226.44C2149.65 1226.47 2149.65 1226.49 2149.65 1226.52C2149.93 1219.93 2150.15 1213.32 2150.31 1206.71C2150.48 1199.73 2150.57 1192.76 2150.57 1185.76C2150.57 1177.43 2150.47 1169.13 2150.27 1160.85C2148.59 1094.65 2140.24 1030.11 2125.87 967.867C2124.08 960.093 2122.19 952.347 2120.2 944.64C2111.92 912.427 2101.96 880.88 2090.53 850.067C2077.33 814.52 2062.15 779.947 2045.03 746.52C2041.48 739.587 2037.84 732.707 2034.13 725.867C1994.28 652.52 1945.16 584.96 1888.41 524.653C1838.81 471.973 1783.39 424.84 1723.12 384.36Z" fill="#1F716E"/>
<path d="M1829.2 235.667C1889.16 276.347 1945.07 322.56 1996.2 373.573L1888.41 524.653C1838.81 471.973 1783.39 424.84 1723.12 384.36L1829.2 235.667Z" fill="#09FFF7"/>
<path d="M141.856 1662.49C75.44 1517.29 38.3813 1355.87 38.3813 1185.76C38.3813 552.08 552.081 38.3733 1185.76 38.3733C1223.17 38.3733 1260.15 40.2268 1296.64 43.7335L1170.08 221.147C1163.53 221.253 1157 221.414 1150.48 221.654C1149.44 221.694 1148.4 221.733 1147.36 221.773C1141.63 222 1135.89 222.253 1130.17 222.573C1127.45 222.733 1124.75 222.92 1122.04 223.093C1117.72 223.373 1113.4 223.64 1109.11 223.973C1101.76 224.547 1094.42 225.187 1087.12 225.92C1054.68 229.214 1022.72 234.12 991.32 240.547C959.916 246.973 929.068 254.92 898.857 264.32C883.751 269.014 868.805 274.08 854.028 279.493C817.085 293.013 781.2 308.733 746.529 326.493C739.596 330.04 732.711 333.68 725.875 337.387C712.204 344.814 698.733 352.56 685.472 360.627C668.295 371.053 651.509 382.067 635.056 393.533C626.105 399.76 617.225 406.093 608.5 412.613C497.057 495.96 404.235 602.827 337.397 725.867C333.684 732.707 330.051 739.587 326.5 746.52C314.393 770.16 303.296 794.387 293.135 819.107C289.523 827.893 286.036 836.733 282.679 845.64C270.537 877.867 260.009 910.88 251.324 944.64C249.341 952.347 247.451 960.093 245.655 967.867C231.287 1030.11 222.941 1094.65 221.264 1160.85C221.055 1169.13 220.949 1177.43 220.949 1185.76C220.949 1192.76 221.047 1199.73 221.215 1206.71C221.372 1213.32 221.592 1219.93 221.868 1226.52C221.888 1226.04 221.925 1225.55 221.945 1225.07C225.576 1315.51 241.512 1402.77 268.375 1485.13L141.856 1662.49Z" fill="#09FFF7"/>
<path d="M681.437 2216.57C616.187 2184.59 554.404 2146.63 496.84 2103.33L602.928 1954.63C619.601 1967.28 636.703 1979.4 654.201 1990.99C696.944 2019.25 742.033 2044.27 789.176 2065.55L681.437 2216.57Z" fill="#09FFF7"/>
<path d="M1185.76 2333.15C1136.09 2333.15 1087.16 2329.97 1039.16 2323.85L1162.99 2150.28C1170.56 2150.45 1178.15 2150.57 1185.76 2150.57C1204.35 2150.57 1222.8 2149.99 1241.13 2148.96C1734.77 2121.01 2129.09 1722.01 2149.65 1226.44C2149.65 1226.47 2149.65 1226.49 2149.65 1226.52C2149.93 1219.93 2150.15 1213.32 2150.31 1206.71C2150.48 1199.73 2150.57 1192.76 2150.57 1185.76C2150.57 1177.43 2150.47 1169.13 2150.27 1160.85C2148.59 1094.65 2140.24 1030.11 2125.87 967.866C2124.08 960.093 2122.19 952.346 2120.2 944.64C2111.92 912.426 2101.96 880.88 2090.53 850.066L2214.21 676.68C2290.29 830.093 2333.15 1002.91 2333.15 1185.76C2333.15 1819.44 1819.44 2333.15 1185.76 2333.15Z" fill="#09FFF7"/>
<path d="M761.23 901C838.335 901 905.874 914.62 963.847 941.859C1022.4 968.518 1067.62 1006.48 1099.5 1055.74C1131.97 1104.42 1148.2 1161.51 1148.2 1227C1148.2 1292.49 1131.97 1349.87 1099.5 1399.13C1067.62 1447.81 1022.4 1485.77 963.847 1513.01C905.874 1539.67 838.335 1553 761.23 1553H436V901H761.23ZM615.138 1477.37L529.047 1393.04H775.144C813.986 1393.04 847.611 1386.38 876.018 1373.05C905.004 1359.14 927.324 1339.72 942.977 1314.8C958.63 1289.88 966.456 1260.61 966.456 1227C966.456 1192.81 958.63 1163.54 942.977 1139.2C927.324 1114.28 905.004 1095.15 876.018 1081.82C847.611 1067.91 813.986 1060.96 775.144 1060.96H529.047L615.138 976.632V1477.37Z" fill="#09FFF7"/>
<path d="M1241.06 901H1421.07V1553H1241.06V901ZM1754.12 901H1935V1553H1754.12V901ZM1341.93 1141.81H1828.91V1301.76H1341.93V1141.81Z" fill="#09FFF7"/>
<mask id="mask0_4_80" style="mask-type:alpha" maskUnits="userSpaceOnUse" x="436" y="901" width="1499" height="652">
<path d="M761.23 901C838.335 901 905.874 914.62 963.847 941.859C1022.4 968.518 1067.62 1006.48 1099.5 1055.74C1131.97 1104.42 1148.2 1161.51 1148.2 1227C1148.2 1292.49 1131.97 1349.87 1099.5 1399.13C1067.62 1447.81 1022.4 1485.77 963.847 1513.01C905.874 1539.67 838.335 1553 761.23 1553H436V901H761.23ZM615.138 1477.37L529.047 1393.04H775.144C813.986 1393.04 847.611 1386.38 876.018 1373.05C905.004 1359.14 927.324 1339.72 942.977 1314.8C958.63 1289.88 966.456 1260.61 966.456 1227C966.456 1192.81 958.63 1163.54 942.977 1139.2C927.324 1114.28 905.004 1095.15 876.018 1081.82C847.611 1067.91 813.986 1060.96 775.144 1060.96H529.047L615.138 976.632V1477.37Z" fill="#FFE100"/>
<path d="M1241.06 901H1421.07V1553H1241.06V901ZM1754.12 901H1935V1553H1754.12V901ZM1341.93 1141.81H1828.91V1301.76H1341.93V1141.81Z" fill="#FFE100"/>
</mask>
<g mask="url(#mask0_4_80)">
<path d="M616.5 2307L1892 521L2329 502L950 2502.5L616.5 2307Z" fill="#9DFFFC"/>
<path d="M10 2071L1285.5 285L1722.5 266L343.5 2266.5L10 2071Z" fill="#9DFFFC"/>
</g>
<defs>
<linearGradient id="paint0_linear_4_80" x1="1185.76" y1="2150.57" x2="1185.76" y2="220.947" gradientUnits="userSpaceOnUse">
<stop stop-color="#10A09B"/>
<stop offset="1" stop-color="#1F5D5B"/>
</linearGradient>
</defs>
</svg>
