<svg width="692" height="140" viewBox="0 0 692 140" fill="none" xmlns="http://www.w3.org/2000/svg">
<path d="M171.472 112V44.8H190.096L216.976 88.672H207.184L233.296 44.8H251.92L252.112 112H231.472L231.28 75.904H234.544L216.688 105.952H206.704L188.08 75.904H192.112V112H171.472ZM263.066 112V44.8H285.722V94.432H316.058V112H263.066Z" fill="#12ACFF"/>
<path d="M322.316 112V44.8H355.436C362.924 44.8 369.516 46.176 375.212 48.928C380.908 51.616 385.356 55.456 388.556 60.448C391.756 65.44 393.356 71.424 393.356 78.4C393.356 85.312 391.756 91.296 388.556 96.352C385.356 101.344 380.908 105.216 375.212 107.968C369.516 110.656 362.924 112 355.436 112H322.316ZM344.972 94.336H354.476C357.676 94.336 360.46 93.728 362.828 92.512C365.26 91.296 367.148 89.504 368.492 87.136C369.836 84.704 370.508 81.792 370.508 78.4C370.508 74.944 369.836 72.032 368.492 69.664C367.148 67.296 365.26 65.504 362.828 64.288C360.46 63.072 357.676 62.464 354.476 62.464H344.972V94.336ZM436.86 113.536C431.42 113.536 426.364 112.672 421.692 110.944C417.084 109.216 413.084 106.784 409.692 103.648C406.3 100.448 403.644 96.704 401.724 92.416C399.868 88.128 398.94 83.456 398.94 78.4C398.94 73.28 399.868 68.608 401.724 64.384C403.644 60.096 406.3 56.384 409.692 53.248C413.084 50.048 417.084 47.584 421.692 45.856C426.364 44.128 431.42 43.264 436.86 43.264C442.364 43.264 447.42 44.128 452.028 45.856C456.636 47.584 460.636 50.048 464.028 53.248C467.42 56.384 470.044 60.096 471.9 64.384C473.82 68.608 474.78 73.28 474.78 78.4C474.78 83.456 473.82 88.128 471.9 92.416C470.044 96.704 467.42 100.448 464.028 103.648C460.636 106.784 456.636 109.216 452.028 110.944C447.42 112.672 442.364 113.536 436.86 113.536ZM436.86 95.2C438.972 95.2 440.924 94.816 442.716 94.048C444.572 93.28 446.172 92.192 447.516 90.784C448.924 89.312 450.012 87.552 450.78 85.504C451.548 83.392 451.932 81.024 451.932 78.4C451.932 75.776 451.548 73.44 450.78 71.392C450.012 69.28 448.924 67.52 447.516 66.112C446.172 64.64 444.572 63.52 442.716 62.752C440.924 61.984 438.972 61.6 436.86 61.6C434.748 61.6 432.764 61.984 430.908 62.752C429.116 63.52 427.516 64.64 426.108 66.112C424.764 67.52 423.708 69.28 422.94 71.392C422.172 73.44 421.788 75.776 421.788 78.4C421.788 81.024 422.172 83.392 422.94 85.504C423.708 87.552 424.764 89.312 426.108 90.784C427.516 92.192 429.116 93.28 430.908 94.048C432.764 94.816 434.748 95.2 436.86 95.2ZM483.003 112V44.8H501.627L535.803 85.696H527.163V44.8H549.243V112H530.619L496.443 71.104H505.083V112H483.003ZM552.863 112L582.24 44.8H604.512L633.888 112H610.464L588.768 55.552H597.6L575.904 112H552.863ZM570.336 100.288L576.096 83.968H607.008L612.768 100.288H570.336ZM648.72 112V62.368H629.04V44.8H691.056V62.368H671.376V112H648.72Z" fill="white"/>
<path d="M33.8868 33.8839V98.8951L69.5441 134.553L107.956 135M32.0481 5H69.987L106.113 41.1012V106.112L134.996 134.996V70.0074M102.495 37.5056L69.9907 70.0112L5.00372 5.00372V70.0112M95.3006 5.00372H135V44.7042L95.3006 5.00372ZM5 95.292V134.993H44.7031L5 95.292Z" stroke="#12ACFF" stroke-width="10" stroke-linecap="round" stroke-linejoin="round"/>
</svg>
