<svg width="841" height="129" viewBox="0 0 841 129" fill="none" xmlns="http://www.w3.org/2000/svg">
<path d="M98.9347 32.4795C73.3734 33.7052 48.004 38.8105 23.9562 47.569C11.7044 52.0295 -2.4978 61.59 0.374616 74.3107C3.47352 88.036 22.2322 89.4082 36.2345 88.0439C64.6576 85.2728 93.7841 84.2336 121.344 91.7184C160.449 102.339 196.885 129.931 237.027 124.41C260.909 121.125 283.337 106.091 307.217 109.401C321.504 111.38 334.42 119.843 348.806 120.909C360.381 121.767 371.678 117.754 382.83 114.535C423.968 102.656 468.054 101.13 509.914 110.133C542.982 117.245 577.999 130.68 609.295 117.85C605.2 128.41 615.7 122.41 616.5 123C625.997 138.601 638.17 117.85 659.5 117.85C680.833 117.85 662.749 119.739 684.708 119.739C706.664 119.739 681.069 123.672 712.5 120.054C727 120.054 704.404 120.054 731.991 120.054C731.991 121 733 136 751.663 117.85C771.5 112.5 752.122 106.427 780.833 105.582C842.336 103.773 842.869 86.3066 840.199 79.7171C838.569 75.6963 834.407 73.3781 830.458 71.5822C804.705 59.8713 775.037 56.7165 751.663 40.7823C739.643 32.5887 729.883 21.3682 717.637 13.513C685.864 -6.86306 644.204 -0.910379 608.053 9.94245C571.903 20.7926 535.366 35.9941 497.854 31.8027C476.191 29.3806 455.711 20.5581 434.168 17.2434C369.312 7.26452 306.22 47.8514 240.637 45.7517C210.802 44.7978 182.019 35.0268 152.554 30.2465C123.089 25.4689 54.7081 33.103 23.9562 47.5744" fill="white"/>
</svg>
